HIERARCHY
ROOT Hips
{
	OFFSET 0.000000 88.474243 0.000000
	CHANNELS 6 Xposition Yposition Zposition Zrotation Yrotation Xrotation 
	JOINT Hips_Spine
	{
		OFFSET 0.000000 0.000000 0.000000
		CHANNELS 3 Zrotation Yrotation Xrotation
		JOINT Spine
		{
			OFFSET 0.005100 8.711998 -0.691000
			CHANNELS 3 Zrotation Yrotation Xrotation
			JOINT Spine1
			{
				OFFSET -0.009200 8.660301 -1.275000
				CHANNELS 3 Zrotation Yrotation Xrotation
				JOINT Spine2
				{
					OFFSET 0.006300 9.852501 -1.857000
					CHANNELS 3 Zrotation Yrotation Xrotation
					JOINT Spine2_Neck
					{
						OFFSET 0.000000 0.000000 0.000000
						CHANNELS 3 Zrotation Yrotation Xrotation
						JOINT Neck
						{
							OFFSET 0.016300 11.420799 -0.263300
							CHANNELS 3 Zrotation Yrotation Xrotation
							End Site #name: Head
							{
								OFFSET -0.019200 9.262405 2.362500
							}
						}
					}
					JOINT Spine2_LeftShoulder
					{
						OFFSET 0.000000 0.000000 0.000000
						CHANNELS 3 Zrotation Yrotation Xrotation
						JOINT LeftShoulder
						{
							OFFSET 5.616900 6.732201 -0.345700
							CHANNELS 3 Zrotation Yrotation Xrotation
							JOINT LeftArm
							{
								OFFSET 10.664888 -0.183372 -2.440700
								CHANNELS 3 Zrotation Yrotation Xrotation
								JOINT LeftForeArm
								{
									OFFSET 27.459126 0.000000 0.000000
									CHANNELS 3 Zrotation Yrotation Xrotation
									End Site #name: LeftHand
									{
										OFFSET 21.306858 0.000000 0.000000
									}
								}
							}
						}
					}
					JOINT Spine2_RightShoulder
					{
						OFFSET 0.000000 0.000000 0.000000
						CHANNELS 3 Zrotation Yrotation Xrotation
						JOINT RightShoulder
						{
							OFFSET -5.580300 6.737503 -0.344400
							CHANNELS 3 Zrotation Yrotation Xrotation
							JOINT RightArm
							{
								OFFSET -10.679335 -0.188484 -2.383900
								CHANNELS 3 Zrotation Yrotation Xrotation
								JOINT RightForeArm
								{
									OFFSET -27.503529 0.000000 0.000000
									CHANNELS 3 Zrotation Yrotation Xrotation
									End Site #name: RightHand
									{
										OFFSET -21.306808 0.000000 0.000000
									}
								}
							}
						}
					}
				}
			}
		}
	}
	JOINT Hips_LeftUpLeg
	{
		OFFSET 0.000000 0.000000 0.000000
		CHANNELS 3 Zrotation Yrotation Xrotation
		JOINT LeftUpLeg
		{
			OFFSET 6.857700 -6.739601 0.312100
			CHANNELS 3 Zrotation Yrotation Xrotation
			JOINT LeftLeg
			{
				OFFSET -0.367590 -34.731552 -4.572400
				CHANNELS 3 Zrotation Yrotation Xrotation
				End Site #name: LeftFoot
				{
					OFFSET 0.367590 -34.656704 -6.067400
				}
			}
		}
	}
	JOINT Hips_RightUpLeg
	{
		OFFSET 0.000000 0.000000 0.000000
		CHANNELS 3 Zrotation Yrotation Xrotation
		JOINT RightUpLeg
		{
			OFFSET -6.876100 -6.733299 0.301000
			CHANNELS 3 Zrotation Yrotation Xrotation
			JOINT RightLeg
			{
				OFFSET 0.347353 -34.795158 -4.515900
				CHANNELS 3 Zrotation Yrotation Xrotation
				End Site #name: RightFoot
				{
					OFFSET -0.347353 -34.589367 -6.070300
				}
			}
		}
	}
}
MOTION
Frames: 14
Frame Time: 0.041667
5.618901 0.830820 1.501572 -4.024592 -9.128882 -0.805607 -0.000000 -0.000000 0.000000 -0.266057 0.600500 4.346551 -0.801579 1.254692 8.717264 0.000000 0.000000 0.000000 -0.858751 1.221001 8.675040 1.414914 -2.296326 3.141209 -0.808570 1.259741 8.660346 3.062809 0.850755 0.441846 -74.368228 -11.363546 26.174881 -178.661032 -86.690654 178.413921 -0.806957 1.233765 8.578367 -3.720279 -1.950865 1.080034 78.665275 -9.287173 4.227011 -173.875846 83.776614 -174.199324 -0.000000 -0.000000 0.000000 1.312174 1.229438 -20.436617 -0.972519 0.447893 28.894512 0.000000 0.000000 -0.000000 -7.915255 0.463826 -15.805680 0.257275 -0.669269 18.819596 
5.801971 0.872901 1.536610 -3.963670 -9.319665 -0.817603 -0.000000 -0.000000 0.000000 -0.254481 0.610353 4.297209 -0.774572 1.244815 8.647076 0.000000 0.000000 0.000000 -0.854064 1.209153 8.600455 1.170679 -2.611643 3.227592 -0.788097 1.251553 8.585371 3.026965 0.835372 0.430849 -74.451566 -10.886037 25.952977 -178.728155 -86.735720 178.491458 -0.788541 1.224093 8.504159 -3.652900 -1.894051 1.071680 78.807437 -9.467069 3.957949 -173.660629 83.802541 -173.997537 -0.000000 -0.000000 0.000000 1.109318 1.182712 -20.268699 -0.947501 0.445609 28.537195 0.000000 0.000000 -0.000000 -8.076768 0.723733 -15.650184 0.259284 -0.680057 18.315023 
5.970503 0.915329 1.568056 -3.923282 -9.559146 -0.838676 -0.000000 -0.000000 0.000000 -0.240711 0.616078 4.254311 -0.747749 1.235991 8.570345 0.000000 0.000000 0.000000 -0.837663 1.204729 8.518929 1.002827 -2.782796 3.267017 -0.764805 1.245278 8.508435 3.006489 0.817378 0.417812 -74.514586 -10.456595 25.764330 -178.927402 -86.764936 178.698471 -0.772087 1.222258 8.428274 -3.613470 -1.825365 1.066734 78.953135 -9.603551 3.745483 -173.545105 83.785169 -173.892774 -0.000000 -0.000000 0.000000 0.926133 1.142606 -20.075715 -0.916493 0.449578 28.183317 0.000000 0.000000 -0.000000 -8.232013 0.933113 -15.510158 0.255222 -0.703783 17.886728 
6.123473 0.954054 1.592278 -3.899913 -9.788833 -0.881913 -0.000000 -0.000000 0.000000 -0.227684 0.613612 4.220410 -0.724778 1.231099 8.494640 0.000000 0.000000 0.000000 -0.820199 1.199121 8.422065 0.922886 -2.893750 3.325489 -0.744136 1.241574 8.438935 2.995102 0.805885 0.410241 -74.588918 -10.075077 25.583990 -179.214988 -86.799744 178.988532 -0.756179 1.225037 8.358620 -3.577874 -1.739321 1.061756 79.070174 -9.700585 3.582767 -173.432381 83.776130 -173.791339 -0.000000 -0.000000 0.000000 0.762235 1.114663 -19.876022 -0.882043 0.461046 27.855716 0.000000 0.000000 -0.000000 -8.349962 1.086307 -15.426854 0.247528 -0.719645 17.605184 
6.262362 0.986694 1.605153 -3.906234 -9.941997 -0.932982 -0.000000 -0.000000 0.000000 -0.216602 0.608133 4.204540 -0.705474 1.230529 8.429386 0.000000 0.000000 0.000000 -0.802640 1.198555 8.332579 0.863664 -2.973733 3.342799 -0.727398 1.240704 8.378533 2.996558 0.805656 0.408739 -74.661965 -9.748466 25.443240 -179.559300 -86.839668 179.331158 -0.741547 1.232010 8.299274 -3.557877 -1.669227 1.053837 79.147972 -9.763142 3.479384 -173.364935 83.749638 -173.734855 -0.000000 -0.000000 0.000000 0.620002 1.101119 -19.672417 -0.851177 0.473885 27.546957 -0.000000 0.000000 -0.000000 -8.444004 1.188082 -15.391202 0.247525 -0.728477 17.440661 
6.381858 1.011139 1.605477 -3.913844 -10.072346 -0.976488 -0.000000 -0.000000 0.000000 -0.209667 0.600950 4.201550 -0.690457 1.234540 8.370506 0.000000 0.000000 0.000000 -0.785417 1.200472 8.264379 0.820568 -3.035265 3.348940 -0.714475 1.241790 8.330118 3.007501 0.820330 0.412580 -74.731288 -9.458524 25.305499 179.997749 -86.867901 179.772589 -0.727894 1.240118 8.256338 -3.541803 -1.637546 1.043782 79.171251 -9.807880 3.438782 -173.326708 83.725243 -173.705947 -0.000000 -0.000000 0.000000 0.484615 1.099612 -19.502639 -0.829300 0.487441 27.274348 -0.000000 0.000000 -0.000000 -8.529141 1.234332 -15.386654 0.240456 -0.732424 17.367517 
6.475774 1.025590 1.594692 -3.921183 -10.196011 -1.005678 -0.000000 -0.000000 0.000000 -0.212839 0.593004 4.176642 -0.678130 1.240339 8.325229 0.000000 0.000000 0.000000 -0.768175 1.203660 8.220551 0.801138 -3.069786 3.340529 -0.704761 1.244869 8.293349 3.026216 0.843328 0.419260 -74.789508 -9.224546 25.199738 179.533908 -86.887921 -179.766670 -0.714403 1.248106 8.225359 -3.532859 -1.628524 1.031244 79.142951 -9.852268 3.438975 -173.344950 83.705215 -173.730525 -0.000000 -0.000000 0.000000 0.363298 1.106274 -19.363714 -0.818629 0.494054 27.061626 -0.000000 0.000000 -0.000000 -8.611517 1.242249 -15.414541 0.239922 -0.722158 17.390873 
6.536964 1.030178 1.577039 -3.917137 -10.323136 -1.031574 -0.000000 -0.000000 0.000000 -0.215847 0.584486 4.165750 -0.667555 1.247926 8.295024 0.000000 0.000000 0.000000 -0.752092 1.209149 8.193782 0.800401 -3.082731 3.319288 -0.696464 1.249204 8.263602 3.048684 0.873671 0.425172 -74.828112 -9.028752 25.115189 178.989596 -86.931328 -179.221743 -0.702399 1.256604 8.206387 -3.530818 -1.636581 1.015012 79.081290 -9.886401 3.459849 -173.437712 83.674127 -173.822611 -0.000000 -0.000000 0.000000 0.259092 1.125913 -19.268911 -0.820725 0.492613 26.952304 -0.000000 0.000000 -0.000000 -8.693004 1.222213 -15.457708 0.241496 -0.710794 17.468174 
6.557996 1.026630 1.557839 -3.902851 -10.439669 -1.057315 -0.000000 -0.000000 0.000000 -0.217943 0.570464 4.164594 -0.658979 1.252708 8.269056 0.000000 0.000000 0.000000 -0.735773 1.217635 8.181213 0.826990 -3.064906 3.293420 -0.688493 1.254700 8.241572 3.077169 0.909232 0.430775 -74.850499 -8.885920 25.060555 178.380475 -86.993188 -178.613386 -0.690803 1.264945 8.197609 -3.529184 -1.664642 0.999376 78.997337 -9.898643 3.510321 -173.625960 83.627580 -174.004161 -0.000000 -0.000000 0.000000 0.185560 1.175783 -19.237572 -0.837560 0.494528 27.005164 -0.000000 -0.000000 -0.000000 -8.776362 1.171932 -15.511903 0.253529 -0.696027 17.606503 
6.530445 1.018015 1.540193 -3.838289 -10.529110 -1.070251 -0.000000 -0.000000 0.000000 -0.217741 0.561085 4.163229 -0.652768 1.258763 8.250767 0.000000 0.000000 0.000000 -0.721760 1.226572 8.177034 0.875816 -3.018390 3.249939 -0.682487 1.260462 8.225188 3.107595 0.945733 0.434326 -74.851704 -8.769679 25.054308 177.631809 -87.096226 -177.866345 -0.681302 1.271996 8.192285 -3.528274 -1.720079 0.982354 78.914360 -9.901893 3.577842 -173.818157 83.580495 -174.184317 -0.000000 -0.000000 0.000000 0.148045 1.249860 -19.252570 -0.856546 0.490561 27.181709 -0.000000 -0.000000 -0.000000 -8.851215 1.109359 -15.566814 0.270870 -0.678917 17.739236 
6.446135 1.009356 1.527901 -3.720720 -10.623577 -1.071533 -0.000000 -0.000000 -0.000000 -0.214030 0.557203 4.162960 -0.646774 1.263638 8.230071 0.000000 0.000000 0.000000 -0.708643 1.236883 8.180569 0.940452 -2.936622 3.182898 -0.676582 1.267472 8.215590 3.138479 0.971688 0.436444 -74.851520 -8.660809 25.065011 176.771646 -87.226116 -177.009075 -0.672699 1.278579 8.190066 -3.541066 -1.780284 0.966429 78.821582 -9.907115 3.672879 -174.011149 83.522628 -174.358662 -0.000000 -0.000000 0.000000 0.140112 1.343227 -19.322460 -0.872635 0.491661 27.393249 -0.000000 -0.000000 -0.000000 -8.921023 1.035834 -15.606845 0.286717 -0.659294 17.837558 
6.299194 1.002922 1.521551 -3.547575 -10.705976 -1.072954 -0.000000 -0.000000 -0.000000 -0.208381 0.561884 4.165025 -0.641697 1.269818 8.212118 0.000000 0.000000 0.000000 -0.694456 1.246852 8.181248 1.019387 -2.827494 3.090293 -0.669756 1.275774 8.209423 3.165974 0.995055 0.437739 -74.833728 -8.550271 25.114620 175.750868 -87.408993 -175.988716 -0.663746 1.283886 8.191730 -3.584240 -1.839210 0.953016 78.738645 -9.956624 3.792607 -174.245510 83.403172 -174.566321 -0.000000 0.000000 0.000000 0.146140 1.415390 -19.392132 -0.877185 0.487877 27.596847 -0.000000 -0.000000 -0.000000 -8.966028 0.956431 -15.630888 0.299072 -0.643485 17.937333 
6.084845 1.001019 1.523240 -3.324467 -10.755736 -1.086452 -0.000000 -0.000000 -0.000000 -0.198020 0.575836 4.156714 -0.635707 1.274647 8.183576 0.000000 0.000000 0.000000 -0.677500 1.256677 8.168551 1.113861 -2.689665 2.958088 -0.660920 1.285121 8.200805 3.183925 1.012639 0.437372 -74.805172 -8.425237 25.165246 174.475343 -87.649112 -174.711649 -0.655766 1.289287 8.191235 -3.661083 -1.862633 0.953881 78.673465 -10.087238 3.890217 -174.483184 83.244541 -174.771830 0.000000 0.000000 0.000000 0.174392 1.463620 -19.428717 -0.869222 0.478104 27.725582 -0.000000 -0.000000 -0.000000 -8.965617 0.891629 -15.602638 0.298440 -0.633885 18.003099 
5.803089 1.010903 1.539550 -3.067263 -10.737188 -1.129266 -0.000000 -0.000000 -0.000000 -0.186417 0.600016 4.149007 -0.628431 1.281531 8.146295 0.000000 0.000000 0.000000 -0.660574 1.271177 8.149882 1.202025 -2.525318 2.816434 -0.650362 1.295914 8.189210 3.191894 1.033362 0.438033 -74.794684 -8.263485 25.165138 172.821105 -87.942047 -173.057208 -0.647957 1.294896 8.186547 -3.747382 -1.851281 0.966354 78.652657 -10.270942 3.956259 -174.634586 83.108605 -174.894361 0.000000 0.000000 0.000000 0.214557 1.485545 -19.364358 -0.860596 0.468841 27.723091 -0.000000 -0.000000 -0.000000 -8.915885 0.848405 -15.509563 0.296759 -0.620945 18.056070 
